<svg xmlns="http://www.w3.org/2000/svg" viewBox="0 0 24 24"><path d="m18.59,7-16.59,0h3v2h-1v6h16v-6h-1v-2h3v10H2V7" style="stroke-width:0px;"/><path d="m15.67,8c-.55,0-1-.45-1-1s.45-1,1-1,1,.45,1,1-.45,1-1,1m-2-2.67c-.55,0-1-.45-1-1s.45-1,1-1,1,.45,1,1-.45,1-1,1m-3.33,0c-.55,0-1-.45-1-1s.45-1,1-1,1,.45,1,1-.45,1-1,1m-2,2.67c-.55,0-1-.45-1-1s.45-1,1-1,1,.45,1,1-.45,1-1,1m3.67-6c-3.31,0-6,2.69-6,6s2.69,6,6,6c.55,0,1-.45,1-1,0-.26-.1-.49-.26-.67-.15-.18-.25-.41-.25-.67,0-.55.45-1,1-1h1.18c1.84,0,3.33-1.49,3.33-3.33,0-2.95-2.69-5.33-6-5.33Z" style="stroke-width:0px;"/></svg>