<svg xmlns="http://www.w3.org/2000/svg" viewBox="0 0 24 24"><polygon points="19 7 19 9 20 9 20 15 4 15 4 9 6 9 6 7 2 7 2 17 22 17 22 7 19 7" style="stroke-width:0px;"/><path d="m7.38,11v-4.8h-1.2v-1.2h2.4v6h-1.2m10.8-1.2c0,.67-.54,1.2-1.2,1.2h-2.4v-1.2h2.4v-1.2h-1.2v-1.2h1.2v-1.2h-2.4v-1.2h2.4c.66,0,1.2.54,1.2,1.2v.9c0,.5-.4.9-.9.9.5,0,.9.4.9.9v.9m-4.8,0v1.2h-3.6v-2.4c0-.67.54-1.2,1.2-1.2h1.2v-1.2h-2.4v-1.2h2.4c.66,0,1.2.54,1.2,1.2v1.2c0,.67-.54,1.2-1.2,1.2h-1.2v1.2s2.4,0,2.4,0Z" style="stroke-width:0px;"/></svg>