<svg xmlns="http://www.w3.org/2000/svg" viewBox="0 0 24 24"><path d="m21.98,20.56c0,.78-.64,1.42-1.42,1.42s-1.42-.64-1.42-1.42.64-1.42,1.42-1.42,1.42.64,1.42,1.42m-6.78,1.44l-1.2-1.2,6.8-6.8,1.2,1.2-6.8,6.8m-1.16-6.54c0-.78.64-1.42,1.42-1.42s1.42.64,1.42,1.42-.64,1.42-1.42,1.42-1.42-.64-1.42-1.42Z" style="stroke-width:0px;"/><path d="m12.81,15h-4.81v-6h12v3.35c.75.26,1.42.67,2,1.19v-5.54c0-.55-.45-1-1-1H3c-.55,0-1,.45-1,1v8c0,.55.45,1,1,1h9.09c.12-.72.37-1.39.72-2Z" style="stroke-width:0px;"/></svg>