<svg xmlns="http://www.w3.org/2000/svg" viewBox="0 0 24 24"><path d="M18.59 7H2h3v2H4v6h16V9h-1V7h3v10H2V7"/><path d="M15.67 8c-.55 0-1-.45-1-1s.45-1 1-1 1 .45 1 1-.45 1-1 1m-2-2.67c-.55 0-1-.45-1-1s.45-1 1-1 1 .45 1 1-.45 1-1 1m-3.33 0c-.55 0-1-.45-1-1s.45-1 1-1 1 .45 1 1-.45 1-1 1M8.34 8c-.55 0-1-.45-1-1s.45-1 1-1 1 .45 1 1-.45 1-1 1m3.67-6c-3.31 0-6 2.69-6 6s2.69 6 6 6c.55 0 1-.45 1-1a1 1 0 0 0-.26-.67c-.15-.18-.25-.41-.25-.67 0-.55.45-1 1-1h1.18c1.84 0 3.33-1.49 3.33-3.33 0-2.95-2.69-5.33-6-5.33Z"/></svg>
