<svg xmlns="http://www.w3.org/2000/svg" viewBox="0 0 512 512"><path d="M207 454c-10-3-21-6-45-18-47-23-74-62-79-114-7-69 24-119 83-153l34-19c20-14 34-33 37-58l1-22c0-10 5-16 15-18 14-2 28 1 42 6 6 3 8 8 6 14l-5 15c-4 22 4 41 21 56 14 13 30 24 44 35 32 26 56 58 65 99 12 56-5 103-47 141-21 20-41 29-74 38-33 10-88 1-98-2Zm55-297h2v6l7 153v109l-2 17 1 1 12-16c10-16 15-33 17-50 8-52 6-103-6-153L259 82l-2-3v3c0 36-15 65-40 91-16 14-31 30-44 46-29 37-40 79-29 125 9 35 26 65 55 86 6 5 13 8 19 12l1-1-8-9c-39-44-52-95-37-153 6-24 19-45 33-65 16-22 30-46 39-72l5-13-1 9c-4 26-12 50-26 72l-14 23c-9 17-16 35-18 55-6 48 8 92 34 132 5 9 13 16 21 21-3-95 6-190 15-284Zm42 278 1 2c7-4 15-6 21-11 46-31 65-75 59-130-4-37-24-67-49-93l-2-3c23 15 39 36 52 60 14 25 19 51 17 78 4-14 5-28 3-43-5-35-22-65-48-89-11-10-24-19-37-27a86 86 0 0 1-42-53c-3-12-3-24-5-37l-1-5h-1l-2 7c-3 18 0 34 6 50 17 47 33 93 40 143 4 31 9 63 7 95l-2 15c32-58 22-117-1-175l3 2c24 36 34 77 34 120 0 37-16 66-45 88l-8 6ZM177 190c-42 27-69 63-71 115 0 44 21 81 41 93-29-32-38-69-32-110 6-42 29-73 62-98Z" style="stroke-width:0"/><path d="M207 454c-10-3-21-6-45-18-47-23-74-62-79-114-7-69 24-119 83-153l34-19c20-14 34-33 37-58l1-22c0-10 5-16 15-18 14-2 28 1 42 6 6 3 8 8 6 14l-5 15c-4 22 4 41 21 56 14 13 30 24 44 35 32 26 56 58 65 99 12 56-5 103-47 141-21 20-41 29-74 38-33 10-88 1-98-2Z" style="stroke-width:0"/><path d="M262 157c-9 94-18 189-15 284-56-47-74-144-37-208 21-32 40-65 41-104-9 31-26 59-44 85-54 68-51 166 12 227l-1 1a148 148 0 0 1-45-223c36-43 88-77 84-140 24 106 86 267 13 364l-1-1c7-95-1-190-5-285h-2Z" style="fill:#734c76;stroke-width:0"/><path d="M304 435c75-46 62-153 16-216 23 58 33 117 1 175 9-86-15-173-45-253-7-18-10-38-4-57h1c2 39 11 74 48 95 55 31 100 94 82 159 5-54-25-107-69-138 74 65 70 198-29 237l-1-2Z" style="fill:#752b5b;stroke-width:0"/><path d="M177 190c-22 20-51 57-58 99-6 41 6 86 28 109-20-12-41-49-41-93 1-52 29-88 71-115ZM253 67c-4-6 5-8 13-8s23 4 20 11c-3 9-25 7-33-3Z" style="fill:#c7abcc;stroke-width:0"/></svg>